<?xml version="1.0" encoding="UTF-8"?>
<svg width="706px" height="628px" viewBox="0 0 706 628" version="1.1" xmlns="http://www.w3.org/2000/svg" xmlns:xlink="http://www.w3.org/1999/xlink">
    <title>编组 3</title>
    <defs>
        <rect id="path-1" x="0" y="0" width="707" height="628"></rect>
        <filter x="-19.1%" y="-19.1%" width="138.2%" height="138.2%" filterUnits="objectBoundingBox" id="filter-3">
            <feGaussianBlur stdDeviation="20" in="SourceGraphic"></feGaussianBlur>
        </filter>
        <linearGradient x1="68.2348717%" y1="26.9496305%" x2="50%" y2="100%" id="linearGradient-4">
            <stop stop-color="#A1DAFF" offset="0%"></stop>
            <stop stop-color="#1677FF" offset="100%"></stop>
        </linearGradient>
        <filter x="-24.1%" y="-24.1%" width="148.3%" height="148.3%" filterUnits="objectBoundingBox" id="filter-5">
            <feGaussianBlur stdDeviation="18" in="SourceGraphic"></feGaussianBlur>
        </filter>
        <path d="M76.9817819,21.047096 L75.7522635,31.7938006 L80.5807986,32.2994625 L81.8008536,21.5541471 L76.9817819,21.047096 Z M59.43148,22.5640817 L61.7733159,33.139917 L66.5225037,32.1876334 L64.1857636,21.603463 L59.43148,22.5640817 Z M89.4735145,34.6680162 L93.9016736,36.5753618 L98.5649625,26.7288465 L94.1469949,24.8215009 L89.4735145,34.6680162 Z M43.2504642,29.2168697 L48.9285244,38.5771717 L53.1317449,36.2516826 L47.4580524,26.8969374 L43.2504642,29.2168697 Z M101.580886,41.472225 L105.158792,44.6034391 L112.81107,36.6323182 L109.228069,33.5004095 L101.580886,41.472225 Z M30.0416945,40.3462937 L38.489629,47.5554488 L41.7253954,44.1040285 L33.2818286,36.8948734 L30.0416945,40.3462937 Z M110.864515,51.5410092 L113.239109,55.5758856 L123.120389,50.2740761 L120.742156,46.233643 L110.864515,51.5410092 Z M21.1329635,54.8430926 L31.5019751,59.1870617 L33.4521704,54.9410299 L23.0678718,50.6026174 L21.1329635,54.8430926 Z M115.82117,61.8841567 L116.992452,66.3746845 L127.987506,63.7560782 L126.811128,59.2662451 L115.82117,61.8841567 Z M17.3890835,71.2750207 L28.6607611,72.3113497 L29.1317489,67.7013524 L17.8484241,66.6594666 L17.3890835,71.2750207 Z M117.393556,79.7837546 L128.693624,80.5596122 L129.040859,75.939196 L117.742247,75.1598655 L117.393556,79.7837546 Z M18.1155841,83.4734195 L19.186408,87.996593 L30.233875,85.6356798 L29.1703306,81.1159792 L18.1155841,83.4734195 Z M113.38834,92.6364577 L123.876008,96.735931 L125.719194,92.4461399 L115.234437,88.3515287 L113.38834,92.6364577 Z M23.8700798,99.3698182 L26.3524112,103.353295 L36.0844609,97.8236597 L33.6130488,93.8457398 L23.8700798,99.3698182 Z M105.38737,103.667944 L114.025302,110.673584 L117.168617,107.146454 L108.53287,100.140814 L105.38737,103.667944 Z M34.5113471,112.771248 L38.1802475,115.815638 L45.6243301,107.672953 L41.966349,104.623006 L34.5113471,112.771248 Z M94.195768,111.772427 L100.10459,120.994505 L104.248846,118.580108 L98.3305606,109.35803 L94.195768,111.772427 Z M49.0100556,122.337843 L53.4738845,124.150724 L57.9013156,114.197937 L53.4258394,112.391307 L49.0100556,122.337843 Z M80.907651,116.149042 L83.5166469,126.670699 L88.2439961,125.59964 L85.6350002,115.082845 L80.907651,116.149042 Z M65.9015569,127.134685 L70.7359156,127.522961 L71.6982741,116.751252 L66.8544519,116.362975 L65.9015569,127.134685 Z" id="path-6"></path>
        <linearGradient x1="37.8453226%" y1="5.78056187%" x2="62.0561213%" y2="94.1471995%" id="linearGradient-8">
            <stop stop-color="#2506FF" offset="0%"></stop>
            <stop stop-color="#1FD8E2" offset="100%"></stop>
        </linearGradient>
        <filter x="-47.6%" y="-47.6%" width="195.2%" height="195.2%" filterUnits="objectBoundingBox" id="filter-9">
            <feGaussianBlur stdDeviation="10" in="SourceGraphic"></feGaussianBlur>
        </filter>
    </defs>
    <g id="登录" stroke="none" stroke-width="1" fill="none" fill-rule="evenodd">
        <g id="Medium" transform="translate(0.000000, -169.000000)">
            <g id="编组-3" transform="translate(-1.000000, 169.000000)">
                <mask id="mask-2" fill="white">
                    <use xlink:href="#path-1"></use>
                </mask>
                <use id="矩形" fill-opacity="0" fill="#FFFFFF" xlink:href="#path-1"></use>
                <g id="编组-4" mask="url(#mask-2)">
                    <g transform="translate(-252.025455, -0.050956)">
                        <circle id="椭圆形" fill="#A016FF" opacity="0.230259487" filter="url(#filter-3)" cx="626.113531" cy="255.986064" r="157.2578"></circle>
                        <circle id="椭圆形备份" fill="url(#linearGradient-4)" opacity="0.22812035" cx="810.305419" cy="545.131363" r="57"></circle>
                        <circle id="椭圆形备份-2" fill="#1659FF" opacity="0.525995164" cx="314" cy="314" r="314"></circle>
                        <circle id="椭圆形备份-3" fill="#1677FF" opacity="0.648832775" filter="url(#filter-5)" cx="712.042693" cy="482.085386" r="111.885057"></circle>
                        <g id="编组" stroke-width="1" fill="none" transform="translate(661.460975, 80.417491)">
                            <mask id="mask-7" fill="white">
                                <use xlink:href="#path-6"></use>
                            </mask>
                            <g id="Clip-2" transform="translate(73.214971, 74.285029) rotate(-62.000000) translate(-73.214971, -74.285029) "></g>
                            <path d="M76.9817819,21.047096 L75.7522635,31.7938006 L80.5807986,32.2994625 L81.8008536,21.5541471 L76.9817819,21.047096 Z M59.43148,22.5640817 L61.7733159,33.139917 L66.5225037,32.1876334 L64.1857636,21.603463 L59.43148,22.5640817 Z M89.4735145,34.6680162 L93.9016736,36.5753618 L98.5649625,26.7288465 L94.1469949,24.8215009 L89.4735145,34.6680162 Z M43.2504642,29.2168697 L48.9285244,38.5771717 L53.1317449,36.2516826 L47.4580524,26.8969374 L43.2504642,29.2168697 Z M101.580886,41.472225 L105.158792,44.6034391 L112.81107,36.6323182 L109.228069,33.5004095 L101.580886,41.472225 Z M30.0416945,40.3462937 L38.489629,47.5554488 L41.7253954,44.1040285 L33.2818286,36.8948734 L30.0416945,40.3462937 Z M110.864515,51.5410092 L113.239109,55.5758856 L123.120389,50.2740761 L120.742156,46.233643 L110.864515,51.5410092 Z M21.1329635,54.8430926 L31.5019751,59.1870617 L33.4521704,54.9410299 L23.0678718,50.6026174 L21.1329635,54.8430926 Z M115.82117,61.8841567 L116.992452,66.3746845 L127.987506,63.7560782 L126.811128,59.2662451 L115.82117,61.8841567 Z M17.3890835,71.2750207 L28.6607611,72.3113497 L29.1317489,67.7013524 L17.8484241,66.6594666 L17.3890835,71.2750207 Z M117.393556,79.7837546 L128.693624,80.5596122 L129.040859,75.939196 L117.742247,75.1598655 L117.393556,79.7837546 Z M18.1155841,83.4734195 L19.186408,87.996593 L30.233875,85.6356798 L29.1703306,81.1159792 L18.1155841,83.4734195 Z M113.38834,92.6364577 L123.876008,96.735931 L125.719194,92.4461399 L115.234437,88.3515287 L113.38834,92.6364577 Z M23.8700798,99.3698182 L26.3524112,103.353295 L36.0844609,97.8236597 L33.6130488,93.8457398 L23.8700798,99.3698182 Z M105.38737,103.667944 L114.025302,110.673584 L117.168617,107.146454 L108.53287,100.140814 L105.38737,103.667944 Z M34.5113471,112.771248 L38.1802475,115.815638 L45.6243301,107.672953 L41.966349,104.623006 L34.5113471,112.771248 Z M94.195768,111.772427 L100.10459,120.994505 L104.248846,118.580108 L98.3305606,109.35803 L94.195768,111.772427 Z M49.0100556,122.337843 L53.4738845,124.150724 L57.9013156,114.197937 L53.4258394,112.391307 L49.0100556,122.337843 Z M80.907651,116.149042 L83.5166469,126.670699 L88.2439961,125.59964 L85.6350002,115.082845 L80.907651,116.149042 Z M65.9015569,127.134685 L70.7359156,127.522961 L71.6982741,116.751252 L66.8544519,116.362975 L65.9015569,127.134685 Z" id="Fill-1" fill="url(#linearGradient-8)" mask="url(#mask-7)" transform="translate(73.214971, 74.285029) rotate(-62.000000) translate(-73.214971, -74.285029) "></path>
                        </g>
                        <rect id="矩形" fill="#1659FF" opacity="0.525995164" x="852.025455" y="292.050956" width="72" height="72" rx="10"></rect>
                        <rect id="矩形备份-2" fill="#1659FF" opacity="0.525995164" filter="url(#filter-9)" x="845.025455" y="311.050956" width="63" height="63" rx="10"></rect>
                        <rect id="矩形备份" fill="#1659FF" opacity="0.525995164" x="887.025455" y="258.050956" width="72" height="72" rx="10"></rect>
                        <g id="编组-2" opacity="0.799967448" stroke-width="1" fill="none" transform="translate(520.025455, 395.050956)">
                            <path d="M4,4 L144.576303,4 C155.326378,4 164.041035,12.7146574 164.041035,23.4647321 C164.041035,34.2148067 155.326378,42.9294641 144.576303,42.9294641 L122.086419,42.9294641 C111.021246,42.9294641 102.051151,51.8995591 102.051151,62.9647321 C102.051151,74.029905 111.021246,83 122.086419,83 L188,83 L188,83" id="路径-2" stroke="#FFFFFF" stroke-width="3" stroke-dasharray="6,3"></path>
                            <circle id="椭圆形备份-4" fill="#FFFFFF" cx="188" cy="83" r="4"></circle>
                            <circle id="椭圆形备份-5" fill="#FFFFFF" cx="4" cy="4" r="4"></circle>
                        </g>
                        <circle id="椭圆形" fill="url(#linearGradient-4)" opacity="0.22812035" cx="540.33019" cy="602.080847" r="18.045977"></circle>
                    </g>
                </g>
            </g>
        </g>
    </g>
</svg>