<svg t="1717817764393" class="icon" viewBox="0 0 1981 1024" version="1.1" xmlns="http://www.w3.org/2000/svg" p-id="19863" width="200" height="200"><path d="M0 887.555087a990.915826 27.718751 0 1 0 1981.831651 0 990.915826 27.718751 0 1 0-1981.831651 0Z" fill="#E6E6E6" p-id="19864"></path><path d="M1519.003178 587.211772c-1.25052 0.017833-2.50327 0.035665-3.771622 0.035666s-2.518873-0.017833-3.769394-0.035666c-66.333301-1.506866-114.410344-42.952362-102.172633-86.437476l29.840847-106.078001 7.541016-26.842718 133.694214 2.28036 8.122809 26.258697 31.983003 103.354051c13.54173 43.723627-34.535313 85.958222-101.46824 87.465087z" fill="#3F3D56" p-id="19865"></path><path d="M1588.488415 396.392634a147.568079 147.568079 0 0 1-149.358039-1.696339l7.541016-26.842718 133.694214 2.28036z" opacity=".2" p-id="19866"></path><path d="M1582.846585 504.294031c5.773347-21.524106 24.756289-52.57312 77.986991-90.01071 92.837198-65.299003 37.457652-114.260995 35.05692-116.313988-5.033288-4.302146-4.291001-9.132587 1.729775-10.784345a25.019322 25.019322 0 0 1 20.137611 4.68778c3.004815 2.487666 72.356306 61.707937-32.404301 135.381636-94.27942 66.315469-74.23543 109.604423-74.005834 110.019034 2.52779 4.629823-1.522469 8.334573-9.054569 8.283304s-15.692803-3.838495-18.22728-8.46386c-0.532753-0.9808-6.59811-12.759319-1.219313-32.798851zM1453.528077 602.67275a15.425312 15.425312 0 0 1-15.425312-15.425312v-66.845993a15.425312 15.425312 0 0 1 30.850624 0v66.845993a15.425312 15.425312 0 0 1-15.425312 15.425312zM1467.054203 443.977047a15.425312 15.425312 0 0 1-20.463058 7.565536l-60.727137-27.939431a15.425312 15.425312 0 0 1 12.895294-28.028595l60.727136 27.941661a15.425312 15.425312 0 0 1 7.567765 20.460829z" fill="#3F3D56" p-id="19867"></path><path d="M1563.411137 443.977047a15.425312 15.425312 0 0 0 20.463059 7.565536l60.724907-27.939431a15.425312 15.425312 0 0 0-12.895294-28.028595l-60.727136 27.941661a15.425312 15.425312 0 0 0-7.565536 20.460829zM1576.937263 602.67275a15.425312 15.425312 0 0 0 15.425313-15.425312v-66.845993a15.425312 15.425312 0 1 0-30.850625 0v66.845993a15.425312 15.425312 0 0 0 15.425312 15.425312zM1641.404815 169.912491a15.171196 15.171196 0 0 0 3.060543-12.057156l-8.394758-49.389977-8.396988-49.389978a15.409709 15.409709 0 0 0-25.02378-9.281937l-38.574426 31.965171-23.240507 19.259349A146.437929 146.437929 0 0 0 1493.919213 100.309112l-22.386765-18.550498-38.574426-31.965171a15.409709 15.409709 0 0 0-25.026009 9.281937l-8.394758 49.389978-8.394759 49.389977a15.255901 15.255901 0 0 0 0.670957 7.743864 147.383064 147.383064 0 1 0 249.591362 4.313292z" fill="#3F3D56" p-id="19868"></path><path d="M1429.092777 70.033593a7.683678 7.683678 0 0 0-2.681597 0.485942 7.552162 7.552162 0 0 0-4.868335 5.873656l-10.180261 59.895685a7.63018 7.63018 0 0 0 10.175803 8.430424l56.959972-21.131786a7.627951 7.627951 0 0 0 2.213487-13.024581L1433.929906 71.799033a7.561078 7.561078 0 0 0-4.841587-1.76544zM1606.515077 70.033593a7.561078 7.561078 0 0 0-4.841587 1.763211L1554.893779 110.562933a7.627951 7.627951 0 0 0 2.215716 13.02681l56.959973 21.131786a7.63018 7.63018 0 0 0 10.175802-8.430424l-10.18249-59.895685a7.552162 7.552162 0 0 0-4.868335-5.873656 7.683678 7.683678 0 0 0-2.679368-0.485942z" fill="#E6E6E6" p-id="19869"></path><path d="M1515.231556 266.728617m-20.567827 0a20.567826 20.567826 0 1 0 41.135653 0 20.567826 20.567826 0 1 0-41.135653 0Z" fill="#E6E6E6" p-id="19870"></path><path d="M1501.520414 256.443589a13.711141 5.142514 0 1 0 27.422283 0 13.711141 5.142514 0 1 0-27.422283 0Z" fill="#3F3D56" p-id="19871"></path><path d="M1504.948757 278.725587h18.853655v23.137968a9.429057 9.429057 0 0 1-9.429057 9.429057 9.429057 9.429057 0 0 1-9.424598-9.429057v-23.137968z" fill="#FF6584" p-id="19872"></path><path d="M1516.377309 45.428882c-0.989717 2.050764-1.948226 4.12159-2.853237 6.236998a146.714337 146.714337 0 0 0-10.365275 78.785006 1538.875528 1538.875528 0 0 1 6.018546-8.666707 146.618486 146.618486 0 0 1 7.199966-76.355297zM1531.802621 64.282537c-0.987487 2.050764-1.948226 4.123819-2.851008 6.236998a146.714337 146.714337 0 0 0-10.365275 78.785006 1545.799086 1545.799086 0 0 1 6.018547-8.666707 146.618486 146.618486 0 0 1 7.199965-76.355297z" fill="#3F3D56" p-id="19873"></path><path d="M1579.362515 434.425391l-2.173364-27.636275-2.173365-27.636275a8.526275 8.526275 0 0 0-13.329966-6.359598l-22.848187 15.699491-16.68252 11.464217a11.357221 11.357221 0 0 0-17.275458 0l-16.68252-11.464217-22.848186-15.699491a8.526275 8.526275 0 0 0-13.329967 6.359598l-2.171135 27.636275-2.173364 27.636275a8.526275 8.526275 0 0 0 12.170839 8.363551l25.021551-11.936785 20.55891-9.808002a11.370595 11.370595 0 0 0 16.185432 0l20.55891 9.808002 25.019322 11.936785a8.526275 8.526275 0 0 0 12.173068-8.363551z" fill="#6385FF" p-id="19874"></path><path d="M1487.809273 244.446619m-5.142513 0a5.142514 5.142514 0 1 0 10.285027 0 5.142514 5.142514 0 1 0-10.285027 0Z" fill="#E6E6E6" p-id="19875"></path><path d="M1542.656067 244.446619m-5.142514 0a5.142514 5.142514 0 1 0 10.285028 0 5.142514 5.142514 0 1 0-10.285028 0Z" fill="#E6E6E6" p-id="19876"></path><path d="M520.325656 541.785119c1.252749 0.015604 2.50327 0.033436 3.771623 0.033436s2.518873-0.017833 3.771623-0.033436c66.331072-1.509095 114.408115-42.954591 102.170403-86.437477l-29.840846-106.080229-7.541016-26.84049-133.691985 2.278132-8.125038 26.258696-31.983003 103.35628c-13.539501 43.723627 34.537542 85.955993 101.468239 87.465088z" fill="#3F3D56" p-id="19877"></path><path d="M450.84042 350.963751a147.568079 147.568079 0 0 0 149.358039-1.694109l-7.541016-26.842719-133.691985 2.278132z" opacity=".2" p-id="19878"></path><path d="M440.245548 446.295302c-14.431138-16.985676-44.87161-36.924899-109.002568-47.983421-111.851347-19.295015-82.746101-87.246637-81.455458-90.126623 2.708346-6.043067-0.031207-10.093326-6.179041-9.007758a25.019322 25.019322 0 0 0-16.194349 12.852941c-1.653986 3.53311-38.991266 86.733946 87.217659 108.496565 113.58781 19.593713 113.993504 67.296269 113.962297 67.768836-0.300927 5.267343 4.944125 6.881205 11.731708 3.613357s12.538639-10.186948 12.850711-15.447603c0.062415-1.114546 0.503775-14.357578-12.930959-30.166294zM585.800758 557.243868a15.425312 15.425312 0 0 0 15.425312-15.425313V474.974792a15.425312 15.425312 0 0 0-30.850625 0v66.845993a15.425312 15.425312 0 0 0 15.425313 15.425312zM572.274631 398.548165a15.425312 15.425312 0 0 0 20.463059 7.567765l60.727137-27.939431a15.425312 15.425312 0 1 0-12.895294-28.028595l-60.727137 27.939431a15.425312 15.425312 0 0 0-7.565536 20.463059zM475.917698 398.548165a15.425312 15.425312 0 0 1-20.46083 7.567765l-60.727137-27.939431a15.425312 15.425312 0 1 1 12.895294-28.028595l60.727137 27.939431a15.425312 15.425312 0 0 1 7.565536 20.463059z" fill="#3F3D56" p-id="19879"></path><path d="M462.3938 557.243868a15.425312 15.425312 0 0 1-15.425312-15.425313V474.974792a15.425312 15.425312 0 0 1 30.850625 0v66.845993a15.425312 15.425312 0 0 1-15.425313 15.425312zM647.515382 120.170317a15.255901 15.255901 0 0 0 0.673185-7.741635l-8.396987-49.389978-8.394758-49.389977a15.409709 15.409709 0 0 0-25.02378-9.284166l-38.574426 31.96517-22.386765 18.552728a146.437929 146.437929 0 0 0-46.915687 0.706622l-23.240506-19.25935L436.679002 4.36679a15.409709 15.409709 0 0 0-25.02378 9.284166l-8.394758 49.389977-8.396987 49.389978a15.171196 15.171196 0 0 0 3.062771 12.054926 147.425417 147.425417 0 1 0 249.591363-4.313291z" fill="#3F3D56" p-id="19880"></path><path d="M605.398929 26.370151l-46.779712 38.763899a7.627951 7.627951 0 0 0 2.213488 13.02681l56.959972 21.131787a7.63018 7.63018 0 0 0 10.175802-8.432653l-10.182489-59.895686a7.552162 7.552162 0 0 0-4.868336-5.873655 7.683678 7.683678 0 0 0-2.679368-0.485942 7.561078 7.561078 0 0 0-4.841586 1.76544zM430.13439 25.090653a7.552162 7.552162 0 0 0-4.868336 5.873655l-10.18026 59.895686a7.63018 7.63018 0 0 0 10.173573 8.430424l56.962201-21.131787a7.627951 7.627951 0 0 0 2.213488-13.024581l-46.779712-38.763899a7.561078 7.561078 0 0 0-4.841586-1.76544 7.683678 7.683678 0 0 0-2.679368 0.485942z" fill="#E6E6E6" p-id="19881"></path><path d="M524.097279 221.299734m-20.567826 0a20.567826 20.567826 0 1 0 41.135652 0 20.567826 20.567826 0 1 0-41.135652 0Z" fill="#E6E6E6" p-id="19882"></path><path d="M510.386138 211.016936a13.711141 5.142514 0 1 0 27.422282 0 13.711141 5.142514 0 1 0-27.422282 0Z" fill="#3F3D56" p-id="19883"></path><path d="M524.95325 265.863729a9.429057 9.429057 0 0 1-9.426827-9.426827v-23.137969h18.855884v23.137969a9.429057 9.429057 0 0 1-9.429057 9.429056z" fill="#FF6584" p-id="19884"></path><path d="M522.953755 0c0.987487 2.050764 1.948226 4.123819 2.851008 6.236998a146.714337 146.714337 0 0 1 10.365275 78.785006 1537.709713 1537.709713 0 0 0-6.018547-8.666708A146.618486 146.618486 0 0 0 522.951526 0zM507.526214 18.853655c0.989717 2.050764 1.948226 4.123819 2.853237 6.236998a146.714337 146.714337 0 0 1 10.365274 78.785005 1539.689146 1539.689146 0 0 0-6.018546-8.666707 146.618486 146.618486 0 0 0-7.199965-76.355296z" fill="#3F3D56" p-id="19885"></path><path d="M459.96632 89.045514l2.173364-27.636275 2.173364-27.636275a8.526275 8.526275 0 0 1 13.329966-6.359598l22.848187 15.70172 16.68252 11.464217a11.357221 11.357221 0 0 1 17.275458 0l16.68252-11.464217 22.848187-15.70172a8.526275 8.526275 0 0 1 13.329966 6.359598l2.173365 27.636275 2.173364 27.636275a8.526275 8.526275 0 0 1-12.173068 8.365779l-25.021551-11.936784-20.556681-9.808002a11.370595 11.370595 0 0 1-16.187662 0l-20.55668 9.808002-25.021551 11.936784a8.526275 8.526275 0 0 1-12.170839-8.365779z" fill="#6385FF" p-id="19886"></path><path d="M546.379276 199.017737c0 2.839862 2.302651 0 5.142514 0s5.142514 2.839862 5.142514 0a5.142514 5.142514 0 0 0-10.285028 0zM501.815281 199.017737c0 2.839862-2.302651 0-5.142513 0s-5.142514 2.839862-5.142514 0a5.142514 5.142514 0 0 1 10.285027 0z" fill="#E6E6E6" p-id="19887"></path><path d="M1072.30441 587.256354v-32.685167h-163.423605V883.462476H1072.30441V850.777309h-130.738438V587.256354h130.738438z" fill="#3F3D56" p-id="19888"></path><path d="M1151.972136 554.571187v328.891289h163.425835V554.571187z m130.740668 296.206122h-98.055501V587.254125h98.055501zM698.472411 850.777309V556.615264h-32.685167V883.462476H829.210849V850.777309h-130.738438z" fill="#6385FF" p-id="19889"></path><path d="M592.24729 587.256354v-32.685167h-163.423606V883.462476H592.24729V850.777309h-130.738439v-116.438818h130.738439v-32.685167h-130.738439v-114.39697h130.738439z" fill="#3F3D56" p-id="19890"></path><path d="M1871.036893 587.256354v-32.685167h-163.423606V883.462476H1871.036893V850.777309h-130.738439v-116.438818h130.738439v-32.685167h-130.738439v-114.39697h130.738439z" fill="#6385FF" p-id="19891"></path><path d="M318.512639 556.615264V826.747703l-86.178902-86.176672-0.19616 0.198389-0.182786-0.182786-88.100379 88.100379V555.59434H111.169246v326.847212h32.685166v-7.5321l88.298768-88.298768 86.359459 86.361687v10.490105h32.685167V556.615264h-32.685167zM1599.346319 556.615264v7.529871l-88.298768 88.298768-86.361687-86.359459v-10.490104H1392.000697v326.847212h32.685167V612.306883l86.178902 86.178902 0.198389-0.198389 0.180556 0.180556 88.102608-88.100378v273.094902h32.682938V556.615264h-32.682938z" fill="#3F3D56" p-id="19892"></path><path d="M746.915025 335.210762m-20.061823 0a20.061822 20.061822 0 1 0 40.123645 0 20.061822 20.061822 0 1 0-40.123645 0Z" fill="#6385FF" p-id="19893"></path><path d="M252.056737 558.119901m-20.061822 0a20.061822 20.061822 0 1 0 40.123645 0 20.061822 20.061822 0 1 0-40.123645 0Z" fill="#6385FF" p-id="19894"></path><path d="M648.835004 1003.938178m-20.061823 0a20.061822 20.061822 0 1 0 40.123645 0 20.061822 20.061822 0 1 0-40.123645 0Z" fill="#6385FF" p-id="19895"></path><path d="M1152.609656 395.39623m-20.061822 0a20.061822 20.061822 0 1 0 40.123645 0 20.061822 20.061822 0 1 0-40.123645 0Z" fill="#6385FF" p-id="19896"></path><path d="M1743.318873 986.105446m-20.061822 0a20.061822 20.061822 0 1 0 40.123645 0 20.061822 20.061822 0 1 0-40.123645 0Z" fill="#6385FF" p-id="19897"></path><path d="M1763.380696 460.03988m-20.061823 0a20.061822 20.061822 0 1 0 40.123645 0 20.061822 20.061822 0 1 0-40.123645 0Z" fill="#6385FF" p-id="19898"></path><path d="M1509.264278 821.152684m-20.061823 0a20.061822 20.061822 0 1 0 40.123645 0 20.061822 20.061822 0 1 0-40.123645 0Z" fill="#6385FF" p-id="19899"></path></svg>