<svg t="1717807861010" class="icon" viewBox="0 0 1024 1024" version="1.1" xmlns="http://www.w3.org/2000/svg" p-id="5256" width="200" height="200"><path d="M224.304762 624.152381h585.142857v-390.095238h-585.142857v390.095238z m624.152381 19.504762V214.552381a19.504762 19.504762 0 0 0-19.504762-19.504762H204.8A19.504762 19.504762 0 0 0 185.295238 214.552381v429.104762a19.504762 19.504762 0 0 0 19.504762 19.504762h624.152381a19.504762 19.504762 0 0 0 19.504762-19.504762z m97.523809 156.038095c0 21.504-17.505524 39.009524-39.009523 39.009524h-780.190477c-21.504 0-39.009524-17.505524-39.009523-39.009524v-39.009524h312.07619a39.009524 39.009524 0 0 0 39.009524 39.009524h156.038095a39.009524 39.009524 0 0 0 39.009524-39.009524H945.980952V799.695238zM126.780952 214.552381c0-43.032381 34.986667-78.019048 78.019048-78.019048h624.152381c43.032381 0 78.019048 34.986667 78.019048 78.019048v507.123809H633.904762a39.009524 39.009524 0 0 0-39.009524 39.009524h-156.038095a39.009524 39.009524 0 0 0-39.009524-39.009524H126.780952V214.552381z m819.2 0a117.028571 117.028571 0 0 0-117.028571-117.028571H204.8A117.028571 117.028571 0 0 0 87.771429 214.552381v507.123809a39.009524 39.009524 0 0 0-39.009524 39.009524V799.695238a78.019048 78.019048 0 0 0 78.019047 78.019048h780.190477a78.019048 78.019048 0 0 0 78.019047-78.019048v-39.009524a39.009524 39.009524 0 0 0-39.009524-39.009524V214.552381z" fill="#F5A623" p-id="5257"></path></svg>